<svg width="158" height="138" viewBox="0 0 158 138" fill="none" xmlns="http://www.w3.org/2000/svg">
<g filter="url(#filter0_d_6_12)">
<path d="M116.981 7.12907C116.981 7.12907 94.5428 -6.36004 68.8484 3.77153C43.154 13.9031 26.8296 40.4214 13.071 61.5375C-0.687536 82.6536 1.48387 107.118 17.6919 121.084C33.8999 135.05 48.5262 121.577 73.7317 125.445C98.9373 129.312 105.081 134.397 128.277 123.075C151.474 111.754 160.859 76.6312 148.599 47.0957C136.338 17.5607 116.981 7.12907 116.981 7.12907Z" fill="#0E4B87"/>
<path opacity="0.8" d="M116.981 7.12907C116.981 7.12907 94.5428 -6.36004 68.8484 3.77153C43.154 13.9031 26.8296 40.4214 13.071 61.5375C-0.687536 82.6536 1.48387 107.118 17.6919 121.084C33.8999 135.05 48.5262 121.577 73.7317 125.445C98.9373 129.312 105.081 134.397 128.277 123.075C151.474 111.754 160.859 76.6312 148.599 47.0957C136.338 17.5607 116.981 7.12907 116.981 7.12907Z" fill="#0E4B87"/>
</g>
<g clip-path="url(#clip0_6_12)">
<path d="M73.8803 54.9316H56.8002C55.893 54.9316 55.1578 55.7144 55.1578 56.6802C55.1578 57.646 55.893 58.4287 56.8002 58.4287H73.8803C74.7874 58.4287 75.5226 57.646 75.5226 56.6802C75.5226 55.7144 74.7874 54.9316 73.8803 54.9316Z" fill="#FFF9F9"/>
<path d="M80.7781 58.4287C81.2098 58.4287 81.6339 58.2416 81.9392 57.9165C82.2446 57.5913 82.4204 57.1399 82.4204 56.6802C82.4204 56.2205 82.2446 55.769 81.9392 55.4439C81.6339 55.1188 81.2098 54.9316 80.7781 54.9316C80.3463 54.9316 79.9223 55.1188 79.6169 55.4439C79.3115 55.769 79.1357 56.2205 79.1357 56.6802C79.1357 57.1399 79.3115 57.5913 79.6169 57.9165C79.9223 58.2416 80.3463 58.4287 80.7781 58.4287Z" fill="#FFF9F9"/>
<path d="M73.2234 65.4229H56.8002C55.893 65.4229 55.1578 66.2056 55.1578 67.1714C55.1578 68.1372 55.893 68.9199 56.8002 68.9199H73.2234C74.1305 68.9199 74.8657 68.1372 74.8657 67.1714C74.8657 66.2056 74.1305 65.4229 73.2234 65.4229Z" fill="#FFF9F9"/>
<path d="M73.2234 75.9141H56.8002C55.893 75.9141 55.1578 76.6968 55.1578 77.6626C55.1578 78.6284 55.893 79.4111 56.8002 79.4111H73.2234C74.1305 79.4111 74.8657 78.6284 74.8657 77.6626C74.8657 76.6968 74.1305 75.9141 73.2234 75.9141Z" fill="#FFF9F9"/>
<path d="M56.8002 40.5936C57.2319 40.5936 57.656 40.4065 57.9613 40.0814C58.2667 39.7563 58.4425 39.3048 58.4425 38.8451C58.4425 38.3854 58.2667 37.9339 57.9613 37.6088C57.656 37.2837 57.2319 37.0966 56.8002 37.0966C56.3684 37.0966 55.9444 37.2837 55.639 37.6088C55.3336 37.9339 55.1578 38.3854 55.1578 38.8451C55.1578 39.3048 55.3336 39.7563 55.639 40.0814C55.9444 40.4065 56.3684 40.5936 56.8002 40.5936Z" fill="#FFF9F9"/>
<path d="M63.644 40.5936C64.0758 40.5936 64.4992 40.4065 64.8046 40.0814C65.1106 39.7563 65.2864 39.3048 65.2864 38.8451C65.2864 38.3854 65.1106 37.9339 64.8046 37.6088C64.4992 37.2837 64.0758 37.0966 63.644 37.0966C63.2104 37.0966 62.7882 37.2837 62.4809 37.6088C62.1756 37.9339 62.0017 38.3854 62.0017 38.8451C62.0017 39.3048 62.1756 39.7563 62.4809 40.0814C62.7882 40.4065 63.2104 40.5936 63.644 40.5936Z" fill="#FFF9F9"/>
<path d="M70.4853 40.5936C70.919 40.5936 71.3411 40.4065 71.6484 40.0814C71.9538 39.7563 72.1277 39.3048 72.1277 38.8451C72.1277 38.3854 71.9538 37.9339 71.6484 37.6088C71.3411 37.2837 70.919 37.0966 70.4853 37.0966C70.0536 37.0966 69.6302 37.2837 69.3248 37.6088C69.0188 37.9339 68.843 38.3854 68.843 38.8451C68.843 39.3048 69.0188 39.7563 69.3248 40.0814C69.6302 40.4065 70.0536 40.5936 70.4853 40.5936Z" fill="#FFF9F9"/>
<path d="M80.7781 40.5936H105.687C106.594 40.5936 107.329 39.8109 107.329 38.8451C107.329 37.8793 106.594 37.0966 105.687 37.0966H80.7781C79.8709 37.0966 79.1357 37.8793 79.1357 38.8451C79.1357 39.8109 79.8709 40.5936 80.7781 40.5936Z" fill="#FFF9F9"/>
<path d="M97.2019 69.6194C89.2328 69.6194 82.7495 76.522 82.7495 85.0065C82.7495 93.491 89.2328 100.394 97.2019 100.394C105.171 100.394 111.654 93.491 111.654 85.0065C111.654 76.522 105.171 69.6194 97.2019 69.6194ZM97.2019 96.8966C91.0439 96.8966 86.0342 91.5629 86.0342 85.0065C86.0342 78.4502 91.0439 73.1165 97.2019 73.1165C103.36 73.1165 108.37 78.4502 108.37 85.0065C108.37 91.5629 103.36 96.8966 97.2019 96.8966Z" fill="#FFF9F9"/>
<path d="M128.745 110.205L115.711 96.3276C117.517 92.9924 118.552 89.1258 118.552 85.0065C118.552 80.5614 117.347 76.4113 115.267 72.9047V36.7468C115.267 33.469 112.762 30.8018 109.683 30.8018H51.8732C48.7945 30.8018 46.2893 33.469 46.2893 36.7468V89.203C46.2893 92.4808 48.7945 95.148 51.8732 95.148H78.0984C81.605 102.605 88.8505 107.737 97.2019 107.737C101.07 107.737 104.702 106.636 107.835 104.712L120.869 118.59C121.955 119.746 123.381 120.324 124.807 120.324C126.233 120.324 127.659 119.746 128.745 118.59C129.797 117.471 130.376 115.982 130.376 114.398C130.376 112.814 129.797 111.325 128.745 110.205ZM51.8732 34.2988H109.683C110.951 34.2988 111.982 35.3971 111.982 36.7468V43.3912H49.5739V36.7468C49.5739 35.3971 50.6055 34.2988 51.8732 34.2988ZM51.8732 91.6509C50.6055 91.6509 49.5739 90.5526 49.5739 89.203V46.8883H111.982V68.6187C108.143 64.6927 102.933 62.2755 97.2019 62.2755C85.4292 62.2755 75.8517 72.4723 75.8517 85.0065C75.8517 87.3171 76.1783 89.5486 76.7832 91.6509H51.8732ZM79.1364 85.0065C79.1364 74.4012 87.2408 65.7725 97.2019 65.7725C107.163 65.7725 115.267 74.4012 115.267 85.0065C115.267 95.6118 107.163 104.24 97.2019 104.24C87.2408 104.24 79.1364 95.6118 79.1364 85.0065ZM126.422 116.118C125.532 117.066 124.083 117.066 123.192 116.118L110.589 102.7C111.778 101.678 112.86 100.525 113.82 99.2605L126.422 112.678C126.854 113.137 127.092 113.748 127.092 114.398C127.092 115.047 126.854 115.659 126.422 116.118Z" fill="#FFF9F9"/>
<path d="M97.2019 77.1388C96.2948 77.1388 95.5596 77.9215 95.5596 78.8873C95.5596 79.8531 96.2948 80.6359 97.2019 80.6359C99.4652 80.6359 101.307 82.5968 101.307 85.0065C101.307 85.9723 102.042 86.7551 102.949 86.7551C103.857 86.7551 104.592 85.9723 104.592 85.0065C104.592 80.668 101.277 77.1388 97.2019 77.1388Z" fill="#FFF9F9"/>
</g>
<defs>
<filter id="filter0_d_6_12" x="0" y="0" width="158" height="138" filterUnits="userSpaceOnUse" color-interpolation-filters="sRGB">
<feFlood flood-opacity="0" result="BackgroundImageFix"/>
<feColorMatrix in="SourceAlpha" type="matrix" values="0 0 0 0 0 0 0 0 0 0 0 0 0 0 0 0 0 0 127 0" result="hardAlpha"/>
<feOffset dy="4"/>
<feGaussianBlur stdDeviation="2"/>
<feComposite in2="hardAlpha" operator="out"/>
<feColorMatrix type="matrix" values="0 0 0 0 0 0 0 0 0 0 0 0 0 0 0 0 0 0 0.25 0"/>
<feBlend mode="normal" in2="BackgroundImageFix" result="effect1_dropShadow_6_12"/>
<feBlend mode="normal" in="SourceGraphic" in2="effect1_dropShadow_6_12" result="shape"/>
</filter>
<clipPath id="clip0_6_12">
<rect width="84.0869" height="89.5252" fill="white" transform="translate(46.2893 30.627)"/>
</clipPath>
</defs>
</svg>
