<svg width="158" height="138" viewBox="0 0 158 138" fill="none" xmlns="http://www.w3.org/2000/svg">
<g filter="url(#filter0_d_6_15)">
<path d="M116.981 7.12907C116.981 7.12907 94.5428 -6.36004 68.8484 3.77153C43.154 13.9031 26.8296 40.4214 13.071 61.5375C-0.687536 82.6536 1.48387 107.118 17.6919 121.084C33.8999 135.05 48.5262 121.577 73.7317 125.445C98.9373 129.312 105.081 134.397 128.277 123.075C151.474 111.754 160.859 76.6312 148.599 47.0957C136.338 17.5607 116.981 7.12907 116.981 7.12907Z" fill="#0E4B87"/>
<path opacity="0.8" d="M116.981 7.12907C116.981 7.12907 94.5428 -6.36004 68.8484 3.77153C43.154 13.9031 26.8296 40.4214 13.071 61.5375C-0.687536 82.6536 1.48387 107.118 17.6919 121.084C33.8999 135.05 48.5262 121.577 73.7317 125.445C98.9373 129.312 105.081 134.397 128.277 123.075C151.474 111.754 160.859 76.6312 148.599 47.0957C136.338 17.5607 116.981 7.12907 116.981 7.12907Z" fill="#0E4B87"/>
</g>
<path d="M38.9642 85.3461C40.7714 92.0908 45.0839 97.7208 51.1076 101.199L62.7138 107.896C66.86 110.29 71.3126 111.487 75.7638 111.488C80.2161 111.488 84.6671 110.291 88.8144 107.896L115.2 92.6603C116.729 91.7799 117.827 90.3497 118.287 88.6353C118.748 86.9206 118.515 85.1329 117.63 83.6012C115.887 80.5758 113.137 78.3876 109.889 77.4415C106.562 76.4726 103.048 76.9099 99.9946 78.673L97.5636 80.0768L117.706 45.1873C118.934 43.0605 119.259 40.5749 118.62 38.1889C117.981 35.8037 116.457 33.8133 114.33 32.5843C112.203 31.3551 109.717 31.0304 107.331 31.6696C104.946 32.3087 102.955 33.8322 101.726 35.9594L92.461 52.0059C91.7443 51.0672 90.8346 50.2514 89.7496 49.6245C87.6216 48.3949 85.136 48.0695 82.7515 48.7075C82.2319 48.8466 81.731 49.0275 81.2524 49.2477C80.4584 47.5678 79.1792 46.1715 77.5423 45.2261C75.415 43.997 72.9295 43.6721 70.5432 44.3115C69.6285 44.5566 68.772 44.9315 67.9941 45.4209C67.2611 44.2425 66.2367 43.2223 64.9536 42.4813C62.9427 41.3179 60.5895 41.0095 58.3307 41.6144C56.0714 42.2193 54.1875 43.6618 53.026 45.6763L41.5555 65.5456C38.0775 71.5687 37.1572 78.6006 38.9644 85.3457L38.9642 85.3461ZM46.4773 68.3877L57.9487 48.5169C58.3519 47.8177 59.0093 47.3168 59.8004 47.1048C60.5912 46.8929 61.4113 46.9985 62.1093 47.4022C63.5586 48.239 64.0618 50.0896 63.2434 51.5412L59.8847 57.3551C59.0996 58.7141 59.5649 60.4523 60.9241 61.2374C61.3718 61.496 61.8605 61.619 62.3429 61.619C63.3248 61.619 64.2799 61.1095 64.8064 60.1982C64.8064 60.1982 68.1536 54.4061 68.1538 54.4059L69.8615 51.4415C70.3297 50.6312 71.0947 50.0477 72.0141 49.8014C72.9331 49.5551 73.8865 49.6781 74.699 50.1474C75.5123 50.6172 76.0959 51.3824 76.3422 52.3016C76.5884 53.2207 76.4655 54.1742 75.996 54.9868C75.9911 54.9955 75.9873 55.0046 75.9824 55.0133L70.9422 63.741C70.1573 65.1002 70.6228 66.8382 71.9819 67.6231C72.4294 67.8815 72.9182 68.0045 73.4003 68.0045C74.3825 68.0045 75.3375 67.495 75.864 66.5834L82.0667 55.8429C82.5378 55.0267 83.3017 54.4436 84.2198 54.1981C85.1385 53.9524 86.0924 54.0759 86.9061 54.5459C88.5967 55.5227 89.1785 57.6912 88.2031 59.38L88.2027 59.3806C88.1873 59.4069 88.1758 59.4344 88.1614 59.4611L82.0002 70.1262C81.2151 71.4851 81.6804 73.2233 83.0393 74.0084C83.487 74.267 83.9758 74.39 84.4581 74.39C85.4401 74.39 86.3951 73.8806 86.9214 72.9693L106.647 38.8022C107.117 37.9896 107.882 37.4061 108.801 37.1596C109.72 36.9133 110.674 37.0363 111.486 37.5055C112.3 37.9754 112.883 38.7406 113.129 39.6598C113.376 40.5789 113.253 41.5324 112.783 42.3447L87.3376 86.4206C86.6946 87.5346 86.8799 88.9415 87.7895 89.8511C88.699 90.7606 90.1059 90.9457 91.2199 90.3025L102.836 83.595C103.949 82.9523 105.166 82.6246 106.386 82.6246C107.027 82.6246 107.67 82.7153 108.299 82.8983C110.132 83.4324 111.698 84.6904 112.706 86.4409C112.876 86.734 112.836 87.0174 112.798 87.1606C112.759 87.3037 112.651 87.5685 112.36 87.7362L85.9715 102.974C79.484 106.72 72.0419 106.72 65.5541 102.974L53.948 96.2768C49.2397 93.5581 45.8675 89.1535 44.4532 83.8752C43.0389 78.5966 43.7575 73.0964 46.4764 68.3877H46.4773ZM96.5458 34.1058L87.2281 34.1971C87.2185 34.1971 87.2092 34.1971 87.1997 34.1971C85.6434 34.1971 84.3738 32.9429 84.3585 31.3832C84.3431 29.8137 85.603 28.5291 87.1724 28.5137L89.8282 28.4876C84.7982 24.5468 78.3327 22.6272 71.8644 23.3475C65.0468 24.1044 59.0231 27.543 54.9033 33.0293C54.3449 33.7729 53.4922 34.1649 52.6287 34.1649C52.0349 34.1649 51.4359 33.9794 50.9244 33.5954C49.6694 32.6531 49.4159 30.8717 50.3585 29.6165C55.3564 22.9609 62.9664 18.6169 71.2364 17.6988C76.5523 17.1069 81.9356 17.9294 86.8047 20.0774C89.2485 21.1554 91.5353 22.5554 93.607 24.2237L93.585 21.9797C93.5697 20.4102 94.8294 19.1256 96.399 19.1102C97.9616 19.0952 99.2531 20.3545 99.2684 21.924L99.3598 31.2364C99.3671 31.99 99.0748 32.7158 98.547 33.2538C98.0194 33.7919 97.2995 34.0984 96.5458 34.1058Z" fill="white"/>
<defs>
<filter id="filter0_d_6_15" x="0" y="0" width="158" height="138" filterUnits="userSpaceOnUse" color-interpolation-filters="sRGB">
<feFlood flood-opacity="0" result="BackgroundImageFix"/>
<feColorMatrix in="SourceAlpha" type="matrix" values="0 0 0 0 0 0 0 0 0 0 0 0 0 0 0 0 0 0 127 0" result="hardAlpha"/>
<feOffset dy="4"/>
<feGaussianBlur stdDeviation="2"/>
<feComposite in2="hardAlpha" operator="out"/>
<feColorMatrix type="matrix" values="0 0 0 0 0 0 0 0 0 0 0 0 0 0 0 0 0 0 0.25 0"/>
<feBlend mode="normal" in2="BackgroundImageFix" result="effect1_dropShadow_6_15"/>
<feBlend mode="normal" in="SourceGraphic" in2="effect1_dropShadow_6_15" result="shape"/>
</filter>
</defs>
</svg>
