<svg width="158" height="138" viewBox="0 0 158 138" fill="none" xmlns="http://www.w3.org/2000/svg">
<g filter="url(#filter0_d_6_16)">
<path d="M116.981 7.12907C116.981 7.12907 94.5428 -6.36004 68.8484 3.77153C43.154 13.9031 26.8296 40.4214 13.071 61.5375C-0.687536 82.6536 1.48387 107.118 17.6919 121.084C33.8999 135.05 48.5262 121.577 73.7317 125.445C98.9373 129.312 105.081 134.397 128.277 123.075C151.474 111.754 160.859 76.6312 148.599 47.0957C136.338 17.5607 116.981 7.12907 116.981 7.12907Z" fill="#0E4B87"/>
<path opacity="0.8" d="M116.981 7.12907C116.981 7.12907 94.5428 -6.36004 68.8484 3.77153C43.154 13.9031 26.8296 40.4214 13.071 61.5375C-0.687536 82.6536 1.48387 107.118 17.6919 121.084C33.8999 135.05 48.5262 121.577 73.7317 125.445C98.9373 129.312 105.081 134.397 128.277 123.075C151.474 111.754 160.859 76.6312 148.599 47.0957C136.338 17.5607 116.981 7.12907 116.981 7.12907Z" fill="#0E4B87"/>
</g>
<path d="M68.8125 69.4375H56.625C51.2477 69.4375 46.875 73.8102 46.875 79.1875V91.375C46.875 96.7523 51.2477 101.125 56.625 101.125H68.8125C74.1898 101.125 78.5625 96.7523 78.5625 91.375V79.1875C78.5625 73.8102 74.1898 69.4375 68.8125 69.4375ZM73.6875 91.375C73.6875 94.0624 71.4999 96.25 68.8125 96.25H56.625C53.9376 96.25 51.75 94.0624 51.75 91.375V79.1875C51.75 76.5001 53.9376 74.3125 56.625 74.3125H68.8125C71.4999 74.3125 73.6875 76.5001 73.6875 79.1875V91.375ZM105.375 32.875H93.1875C87.8102 32.875 83.4375 37.2477 83.4375 42.625V54.8125C83.4375 60.1898 87.8102 64.5625 93.1875 64.5625H105.375C110.752 64.5625 115.125 60.1898 115.125 54.8125V42.625C115.125 37.2477 110.752 32.875 105.375 32.875ZM110.25 54.8125C110.25 57.4999 108.062 59.6875 105.375 59.6875H93.1875C90.5001 59.6875 88.3125 57.4999 88.3125 54.8125V42.625C88.3125 39.9376 90.5001 37.75 93.1875 37.75H105.375C108.062 37.75 110.25 39.9376 110.25 42.625V54.8125ZM68.8125 32.875H56.625C51.2477 32.875 46.875 37.2477 46.875 42.625V54.8125C46.875 60.1898 51.2477 64.5625 56.625 64.5625H68.8125C74.1898 64.5625 78.5625 60.1898 78.5625 54.8125V42.625C78.5625 37.2477 74.1898 32.875 68.8125 32.875ZM73.6875 54.8125C73.6875 57.4999 71.4999 59.6875 68.8125 59.6875H56.625C53.9376 59.6875 51.75 57.4999 51.75 54.8125V42.625C51.75 39.9376 53.9376 37.75 56.625 37.75H68.8125C71.4999 37.75 73.6875 39.9376 73.6875 42.625V54.8125ZM115.125 93.8125C115.125 95.1598 114.035 96.25 112.688 96.25H85.875C84.5277 96.25 83.4375 95.1598 83.4375 93.8125C83.4375 92.4652 84.5277 91.375 85.875 91.375H112.688C114.035 91.375 115.125 92.4652 115.125 93.8125ZM115.125 84.0625C115.125 85.4098 114.035 86.5 112.688 86.5H85.875C84.5277 86.5 83.4375 85.4098 83.4375 84.0625C83.4375 82.7152 84.5277 81.625 85.875 81.625H112.688C114.035 81.625 115.125 82.7152 115.125 84.0625ZM115.125 74.3125C115.125 75.6598 114.035 76.75 112.688 76.75H85.875C84.5277 76.75 83.4375 75.6598 83.4375 74.3125C83.4375 72.9652 84.5277 71.875 85.875 71.875H112.688C114.035 71.875 115.125 72.9652 115.125 74.3125Z" fill="white"/>
<defs>
<filter id="filter0_d_6_16" x="0" y="0" width="158" height="138" filterUnits="userSpaceOnUse" color-interpolation-filters="sRGB">
<feFlood flood-opacity="0" result="BackgroundImageFix"/>
<feColorMatrix in="SourceAlpha" type="matrix" values="0 0 0 0 0 0 0 0 0 0 0 0 0 0 0 0 0 0 127 0" result="hardAlpha"/>
<feOffset dy="4"/>
<feGaussianBlur stdDeviation="2"/>
<feComposite in2="hardAlpha" operator="out"/>
<feColorMatrix type="matrix" values="0 0 0 0 0 0 0 0 0 0 0 0 0 0 0 0 0 0 0.25 0"/>
<feBlend mode="normal" in2="BackgroundImageFix" result="effect1_dropShadow_6_16"/>
<feBlend mode="normal" in="SourceGraphic" in2="effect1_dropShadow_6_16" result="shape"/>
</filter>
</defs>
</svg>
